<svg id="visual" viewBox="0 0 900 600" width="900" height="600" xmlns="http://www.w3.org/2000/svg" xmlns:xlink="http://www.w3.org/1999/xlink" version="1.1"><path d="M0 235L75 252C150 269 300 303 450 357C600 411 750 485 825 522L900 559L900 0L825 0C750 0 600 0 450 0C300 0 150 0 75 0L0 0Z" fill="#ffffff"></path><path d="M0 409L75 402C150 395 300 381 450 411C600 441 750 515 825 552L900 589L900 557L825 520C750 483 600 409 450 355C300 301 150 267 75 250L0 233Z" fill="#ff0000"></path><path d="M0 601L75 601C150 601 300 601 450 601C600 601 750 601 825 601L900 601L900 587L825 550C750 513 600 439 450 409C300 379 150 393 75 400L0 407Z" fill="#ffffff"></path></svg>