<svg id="visual" viewBox="0 0 900 600" width="900" height="600" xmlns="http://www.w3.org/2000/svg" xmlns:xlink="http://www.w3.org/1999/xlink" version="1.1"><path d="M0 73L75 137C150 201 300 329 450 351C600 373 750 289 825 247L900 205L900 0L825 0C750 0 600 0 450 0C300 0 150 0 75 0L0 0Z" fill="#ffffff"></path><path d="M0 229L75 278C150 327 300 425 450 468C600 511 750 499 825 493L900 487L900 203L825 245C750 287 600 371 450 349C300 327 150 199 75 135L0 71Z" fill="#ff0000"></path><path d="M0 601L75 601C150 601 300 601 450 601C600 601 750 601 825 601L900 601L900 485L825 491C750 497 600 509 450 466C300 423 150 325 75 276L0 227Z" fill="#ffffff"></path></svg>