<svg id="visual" viewBox="0 0 900 600" width="900" height="600" xmlns="http://www.w3.org/2000/svg" xmlns:xlink="http://www.w3.org/1999/xlink" version="1.1"><path d="M0 355L75 373C150 391 300 427 450 400C600 373 750 283 825 238L900 193L900 0L825 0C750 0 600 0 450 0C300 0 150 0 75 0L0 0Z" fill="#ffffff"></path><path d="M0 589L75 587C150 585 300 581 450 544C600 507 750 437 825 402L900 367L900 191L825 236C750 281 600 371 450 398C300 425 150 389 75 371L0 353Z" fill="#ff0000"></path><path d="M0 601L75 601C150 601 300 601 450 601C600 601 750 601 825 601L900 601L900 365L825 400C750 435 600 505 450 542C300 579 150 583 75 585L0 587Z" fill="#ffffff"></path></svg>