<svg id="visual" viewBox="0 0 900 600" width="900" height="600" xmlns="http://www.w3.org/2000/svg" xmlns:xlink="http://www.w3.org/1999/xlink" version="1.1"><path d="M0 163L75 149C150 135 300 107 450 89C600 71 750 63 825 59L900 55L900 0L825 0C750 0 600 0 450 0C300 0 150 0 75 0L0 0Z" fill="#ffffff"></path><path d="M0 241L75 216C150 191 300 141 450 172C600 203 750 315 825 371L900 427L900 53L825 57C750 61 600 69 450 87C300 105 150 133 75 147L0 161Z" fill="#ff0000"></path><path d="M0 601L75 601C150 601 300 601 450 601C600 601 750 601 825 601L900 601L900 425L825 369C750 313 600 201 450 170C300 139 150 189 75 214L0 239Z" fill="#ffffff"></path></svg>