<svg id="visual" viewBox="0 0 900 600" width="900" height="600" xmlns="http://www.w3.org/2000/svg" xmlns:xlink="http://www.w3.org/1999/xlink" version="1.1"><path d="M0 229L75 228C150 227 300 225 450 240C600 255 750 287 825 303L900 319L900 0L825 0C750 0 600 0 450 0C300 0 150 0 75 0L0 0Z" fill="#ffffff"></path><path d="M0 325L75 315C150 305 300 285 450 296C600 307 750 349 825 370L900 391L900 317L825 301C750 285 600 253 450 238C300 223 150 225 75 226L0 227Z" fill="#ff0000"></path><path d="M0 601L75 601C150 601 300 601 450 601C600 601 750 601 825 601L900 601L900 389L825 368C750 347 600 305 450 294C300 283 150 303 75 313L0 323Z" fill="#ffffff"></path></svg>