<svg id="visual" viewBox="0 0 900 600" width="900" height="600" xmlns="http://www.w3.org/2000/svg" xmlns:xlink="http://www.w3.org/1999/xlink" version="1.1"><rect x="0" y="0" width="900" height="600" fill="#FFFFFF"></rect><defs><linearGradient id="grad1_0" x1="33.3%" y1="0%" x2="100%" y2="100%"><stop offset="20%" stop-color="#ffffff" stop-opacity="1"></stop><stop offset="80%" stop-color="#ffffff" stop-opacity="1"></stop></linearGradient></defs><defs><linearGradient id="grad2_0" x1="0%" y1="0%" x2="66.7%" y2="100%"><stop offset="20%" stop-color="#ffffff" stop-opacity="1"></stop><stop offset="80%" stop-color="#ffffff" stop-opacity="1"></stop></linearGradient></defs><g transform="translate(900, 0)"><path d="M0 486.7C-48.9 446.3 -97.7 405.8 -161.1 389C-224.5 372.1 -302.4 378.8 -344.2 344.2C-385.9 309.6 -391.5 233.8 -409.3 169.5C-427 105.3 -456.9 52.6 -486.7 0L0 0Z" fill="#7b021e"></path></g><g transform="translate(0, 600)"><path d="M0 -486.7C63 -467.1 126 -447.5 171.1 -413C216.2 -378.5 243.4 -329.1 292.7 -292.7C342.1 -256.3 413.7 -232.9 449.7 -186.3C485.7 -139.6 486.2 -69.8 486.7 0L0 0Z" fill="#7b021e"></path></g></svg>