<svg id="visual" viewBox="0 0 900 600" width="900" height="600" xmlns="http://www.w3.org/2000/svg" xmlns:xlink="http://www.w3.org/1999/xlink" version="1.1"><path d="M0 313L75 284C150 255 300 197 450 157C600 117 750 95 825 84L900 73L900 0L825 0C750 0 600 0 450 0C300 0 150 0 75 0L0 0Z" fill="#ffffff"></path><path d="M0 589L75 522C150 455 300 321 450 250C600 179 750 171 825 167L900 163L900 71L825 82C750 93 600 115 450 155C300 195 150 253 75 282L0 311Z" fill="#ff0000"></path><path d="M0 601L75 601C150 601 300 601 450 601C600 601 750 601 825 601L900 601L900 161L825 165C750 169 600 177 450 248C300 319 150 453 75 520L0 587Z" fill="#ffffff"></path></svg>