<svg id="visual" viewBox="0 0 900 600" width="900" height="600" xmlns="http://www.w3.org/2000/svg" xmlns:xlink="http://www.w3.org/1999/xlink" version="1.1"><g stroke-width="1" stroke-linejoin="bevel"><path d="M414.7 331L354.7 289L296.1 396Z" fill="#ff4021" stroke="#ff4021"></path><path d="M354.7 289L241.1 272L296.1 396Z" fill="#ff8a69" stroke="#ff8a69"></path><path d="M296.1 396L357.7 505L414.7 331Z" fill="#ff9e81" stroke="#ff9e81"></path><path d="M296.1 396L275.1 512L357.7 505Z" fill="#ffece5" stroke="#ffece5"></path><path d="M121.6 506L275.1 512L296.1 396Z" fill="#ff8a69" stroke="#ff8a69"></path><path d="M561.3 385L547.3 285L414.7 331Z" fill="#ffd8cb" stroke="#ffd8cb"></path><path d="M414.7 331L547.3 285L354.7 289Z" fill="#ffd8cb" stroke="#ffd8cb"></path><path d="M280.1 111L150.6 202L241.1 272Z" fill="#ff5d39" stroke="#ff5d39"></path><path d="M560.3 469L561.3 385L414.7 331Z" fill="#ffd8cb" stroke="#ffd8cb"></path><path d="M357.7 505L560.3 469L414.7 331Z" fill="#ff0000" stroke="#ff0000"></path><path d="M357.7 505L403.7 600L560.3 469Z" fill="#ff4021" stroke="#ff4021"></path><path d="M271.1 600L403.7 600L357.7 505Z" fill="#ff0000" stroke="#ff0000"></path><path d="M280.1 111L241.1 272L354.7 289Z" fill="#ff5d39" stroke="#ff5d39"></path><path d="M241.1 272L86.6 358L296.1 396Z" fill="#ffb299" stroke="#ffb299"></path><path d="M121.6 506L271.1 600L275.1 512Z" fill="#ffb299" stroke="#ffb299"></path><path d="M275.1 512L271.1 600L357.7 505Z" fill="#ff9e81" stroke="#ff9e81"></path><path d="M336.7 84L280.1 111L354.7 289Z" fill="#ff9e81" stroke="#ff9e81"></path><path d="M150.6 202L86.6 358L241.1 272Z" fill="#ffffff" stroke="#ffffff"></path><path d="M511.3 76L336.7 84L354.7 289Z" fill="#ff8a69" stroke="#ff8a69"></path><path d="M86.6 358L121.6 506L296.1 396Z" fill="#ff9e81" stroke="#ff9e81"></path><path d="M645.9 317L609.9 219L547.3 285Z" fill="#ffffff" stroke="#ffffff"></path><path d="M547.3 285L511.3 76L354.7 289Z" fill="#ffb299" stroke="#ffb299"></path><path d="M645.9 317L547.3 285L561.3 385Z" fill="#ffd8cb" stroke="#ffd8cb"></path><path d="M280.1 111L157.6 135L150.6 202Z" fill="#ffc5b2" stroke="#ffc5b2"></path><path d="M0 204L0 403L86.6 358Z" fill="#ffd8cb" stroke="#ffd8cb"></path><path d="M227.1 0L157.6 135L280.1 111Z" fill="#ffc5b2" stroke="#ffc5b2"></path><path d="M653.9 495L645.9 317L561.3 385Z" fill="#ffece5" stroke="#ffece5"></path><path d="M403.7 600L556.3 600L560.3 469Z" fill="#ff8a69" stroke="#ff8a69"></path><path d="M560.3 469L653.9 495L561.3 385Z" fill="#ffece5" stroke="#ffece5"></path><path d="M609.9 219L511.3 76L547.3 285Z" fill="#ffc5b2" stroke="#ffc5b2"></path><path d="M556.3 600L653.9 495L560.3 469Z" fill="#ffb299" stroke="#ffb299"></path><path d="M0 204L86.6 358L150.6 202Z" fill="#ff8a69" stroke="#ff8a69"></path><path d="M86.6 358L0 403L121.6 506Z" fill="#ffd8cb" stroke="#ffd8cb"></path><path d="M0 528L88.6 600L121.6 506Z" fill="#ff9e81" stroke="#ff9e81"></path><path d="M121.6 506L88.6 600L271.1 600Z" fill="#ffffff" stroke="#ffffff"></path><path d="M511.3 76L416.7 0L336.7 84Z" fill="#ffc5b2" stroke="#ffc5b2"></path><path d="M336.7 84L227.1 0L280.1 111Z" fill="#ffd8cb" stroke="#ffd8cb"></path><path d="M416.7 0L227.1 0L336.7 84Z" fill="#ffece5" stroke="#ffece5"></path><path d="M0 169L0 204L150.6 202Z" fill="#ff8a69" stroke="#ff8a69"></path><path d="M0 169L150.6 202L157.6 135Z" fill="#ffb299" stroke="#ffb299"></path><path d="M511.3 76L504.3 0L416.7 0Z" fill="#ff4021" stroke="#ff4021"></path><path d="M652.9 0L504.3 0L511.3 76Z" fill="#ff4021" stroke="#ff4021"></path><path d="M0 403L0 528L121.6 506Z" fill="#ff5d39" stroke="#ff5d39"></path><path d="M0 0L0 169L157.6 135Z" fill="#ffd8cb" stroke="#ffd8cb"></path><path d="M653.9 495L752.4 360L645.9 317Z" fill="#ffd8cb" stroke="#ffd8cb"></path><path d="M645.9 317L812.4 259L609.9 219Z" fill="#ff9e81" stroke="#ff9e81"></path><path d="M609.9 219L686.9 70L511.3 76Z" fill="#ffc5b2" stroke="#ffc5b2"></path><path d="M227.1 0L165.6 0L157.6 135Z" fill="#ffd8cb" stroke="#ffd8cb"></path><path d="M556.3 600L677.9 600L653.9 495Z" fill="#ffb299" stroke="#ffb299"></path><path d="M653.9 495L746.4 510L752.4 360Z" fill="#ff4021" stroke="#ff4021"></path><path d="M677.9 600L746.4 510L653.9 495Z" fill="#ffb299" stroke="#ffb299"></path><path d="M0 528L0 600L88.6 600Z" fill="#ff9e81" stroke="#ff9e81"></path><path d="M812.4 259L686.9 70L609.9 219Z" fill="#ff4021" stroke="#ff4021"></path><path d="M686.9 70L652.9 0L511.3 76Z" fill="#ff4021" stroke="#ff4021"></path><path d="M900 375L812.4 259L752.4 360Z" fill="#ff8a69" stroke="#ff8a69"></path><path d="M752.4 360L812.4 259L645.9 317Z" fill="#ff8a69" stroke="#ff8a69"></path><path d="M686.9 70L806.4 0L652.9 0Z" fill="#ffece5" stroke="#ffece5"></path><path d="M677.9 600L766.4 600L746.4 510Z" fill="#ffffff" stroke="#ffffff"></path><path d="M900 433L900 375L752.4 360Z" fill="#ffffff" stroke="#ffffff"></path><path d="M165.6 0L0 0L157.6 135Z" fill="#ff8a69" stroke="#ff8a69"></path><path d="M812.4 259L818.4 71L686.9 70Z" fill="#ffc5b2" stroke="#ffc5b2"></path><path d="M900 433L752.4 360L746.4 510Z" fill="#ff0000" stroke="#ff0000"></path><path d="M812.4 259L900 253L818.4 71Z" fill="#ff0000" stroke="#ff0000"></path><path d="M900 600L900 433L746.4 510Z" fill="#ff7551" stroke="#ff7551"></path><path d="M900 375L900 253L812.4 259Z" fill="#ffece5" stroke="#ffece5"></path><path d="M900 0L806.4 0L818.4 71Z" fill="#ffece5" stroke="#ffece5"></path><path d="M818.4 71L806.4 0L686.9 70Z" fill="#ffece5" stroke="#ffece5"></path><path d="M766.4 600L900 600L746.4 510Z" fill="#ff0000" stroke="#ff0000"></path><path d="M900 253L900 71L818.4 71Z" fill="#ff9e81" stroke="#ff9e81"></path><path d="M900 71L900 0L818.4 71Z" fill="#ffc5b2" stroke="#ffc5b2"></path></g></svg>