<svg id="visual" viewBox="0 0 900 600" width="900" height="600" xmlns="http://www.w3.org/2000/svg" xmlns:xlink="http://www.w3.org/1999/xlink" version="1.1"><g stroke-width="1" stroke-linejoin="bevel"><path d="M329 309L203 199L195 268Z" fill="#ffece5" stroke="#ffece5"></path><path d="M329 309L351 156L203 199Z" fill="#ff4021" stroke="#ff4021"></path><path d="M351 156L217 0L203 199Z" fill="#ffd8cb" stroke="#ffd8cb"></path><path d="M311 0L217 0L351 156Z" fill="#ffb299" stroke="#ffb299"></path><path d="M203 199L0 283L195 268Z" fill="#ff9e81" stroke="#ff9e81"></path><path d="M195 268L191 490L329 309Z" fill="#ffd8cb" stroke="#ffd8cb"></path><path d="M329 309L536 198L351 156Z" fill="#ffd8cb" stroke="#ffd8cb"></path><path d="M351 156L491 0L311 0Z" fill="#ff4021" stroke="#ff4021"></path><path d="M581 301L536 198L329 309Z" fill="#ff7551" stroke="#ff7551"></path><path d="M191 490L355 497L329 309Z" fill="#ff0000" stroke="#ff0000"></path><path d="M0 134L0 283L203 199Z" fill="#ffffff" stroke="#ffffff"></path><path d="M195 268L0 417L191 490Z" fill="#ff5d39" stroke="#ff5d39"></path><path d="M217 0L0 134L203 199Z" fill="#ff8a69" stroke="#ff8a69"></path><path d="M512 455L581 301L329 309Z" fill="#ffb299" stroke="#ffb299"></path><path d="M355 497L512 455L329 309Z" fill="#ff9e81" stroke="#ff9e81"></path><path d="M704 0L491 0L536 198Z" fill="#ffc5b2" stroke="#ffc5b2"></path><path d="M536 198L491 0L351 156Z" fill="#ff9e81" stroke="#ff9e81"></path><path d="M0 283L0 417L195 268Z" fill="#ffffff" stroke="#ffffff"></path><path d="M217 0L0 0L0 134Z" fill="#ff4021" stroke="#ff4021"></path><path d="M191 490L191 600L355 497Z" fill="#ffb299" stroke="#ffb299"></path><path d="M355 497L377 600L512 455Z" fill="#ff5d39" stroke="#ff5d39"></path><path d="M0 600L191 600L191 490Z" fill="#ff5d39" stroke="#ff5d39"></path><path d="M191 600L377 600L355 497Z" fill="#ffc5b2" stroke="#ffc5b2"></path><path d="M688 489L698 294L581 301Z" fill="#ff5d39" stroke="#ff5d39"></path><path d="M581 301L698 294L536 198Z" fill="#ffd8cb" stroke="#ffd8cb"></path><path d="M688 489L581 301L512 455Z" fill="#ffffff" stroke="#ffffff"></path><path d="M377 600L529 600L512 455Z" fill="#ffc5b2" stroke="#ffc5b2"></path><path d="M0 417L0 600L191 490Z" fill="#ff4021" stroke="#ff4021"></path><path d="M698 294L733 186L536 198Z" fill="#ffd8cb" stroke="#ffd8cb"></path><path d="M529 600L688 489L512 455Z" fill="#ffb299" stroke="#ffb299"></path><path d="M900 313L900 178L733 186Z" fill="#ff4021" stroke="#ff4021"></path><path d="M733 186L704 0L536 198Z" fill="#ff5d39" stroke="#ff5d39"></path><path d="M529 600L692 600L688 489Z" fill="#ff9e81" stroke="#ff9e81"></path><path d="M900 313L733 186L698 294Z" fill="#ffece5" stroke="#ffece5"></path><path d="M900 313L698 294L900 433Z" fill="#ff5d39" stroke="#ff5d39"></path><path d="M733 186L900 0L704 0Z" fill="#ffc5b2" stroke="#ffc5b2"></path><path d="M900 433L698 294L688 489Z" fill="#ff7551" stroke="#ff7551"></path><path d="M900 600L900 433L688 489Z" fill="#ffb299" stroke="#ffb299"></path><path d="M900 178L900 0L733 186Z" fill="#ffffff" stroke="#ffffff"></path><path d="M692 600L900 600L688 489Z" fill="#ffffff" stroke="#ffffff"></path></g></svg>