<svg id="visual" viewBox="0 0 900 600" width="900" height="600" xmlns="http://www.w3.org/2000/svg" xmlns:xlink="http://www.w3.org/1999/xlink" version="1.1"><path d="M0 289L75 268C150 247 300 205 450 166C600 127 750 91 825 73L900 55L900 0L825 0C750 0 600 0 450 0C300 0 150 0 75 0L0 0Z" fill="#ffffff"></path><path d="M0 367L75 346C150 325 300 283 450 277C600 271 750 301 825 316L900 331L900 53L825 71C750 89 600 125 450 164C300 203 150 245 75 266L0 287Z" fill="#ff0000"></path><path d="M0 601L75 601C150 601 300 601 450 601C600 601 750 601 825 601L900 601L900 329L825 314C750 299 600 269 450 275C300 281 150 323 75 344L0 365Z" fill="#ffffff"></path></svg>