<svg id="visual" viewBox="0 0 900 600" width="900" height="600" xmlns="http://www.w3.org/2000/svg" xmlns:xlink="http://www.w3.org/1999/xlink" version="1.1"><path d="M0 451L75 429C150 407 300 363 450 302C600 241 750 163 825 124L900 85L900 0L825 0C750 0 600 0 450 0C300 0 150 0 75 0L0 0Z" fill="#ffffff"></path><path d="M0 451L75 439C150 427 300 403 450 406C600 409 750 439 825 454L900 469L900 83L825 122C750 161 600 239 450 300C300 361 150 405 75 427L0 449Z" fill="#ff0000"></path><path d="M0 601L75 601C150 601 300 601 450 601C600 601 750 601 825 601L900 601L900 467L825 452C750 437 600 407 450 404C300 401 150 425 75 437L0 449Z" fill="#ffffff"></path></svg>