<svg id="visual" viewBox="0 0 900 600" width="900" height="600" xmlns="http://www.w3.org/2000/svg" xmlns:xlink="http://www.w3.org/1999/xlink" version="1.1"><path d="M0 409L75 400C150 391 300 373 450 376C600 379 750 403 825 415L900 427L900 0L825 0C750 0 600 0 450 0C300 0 150 0 75 0L0 0Z" fill="#ffffff"></path><path d="M0 433L75 434C150 435 300 437 450 461C600 485 750 531 825 554L900 577L900 425L825 413C750 401 600 377 450 374C300 371 150 389 75 398L0 407Z" fill="#ff0000"></path><path d="M0 601L75 601C150 601 300 601 450 601C600 601 750 601 825 601L900 601L900 575L825 552C750 529 600 483 450 459C300 435 150 433 75 432L0 431Z" fill="#ffffff"></path></svg>