<svg id="visual" viewBox="0 0 900 600" width="900" height="600" xmlns="http://www.w3.org/2000/svg" xmlns:xlink="http://www.w3.org/1999/xlink" version="1.1"><rect x="0" y="0" width="900" height="600" fill="#FFFFFF"></rect><defs><linearGradient id="grad1_0" x1="33.3%" y1="0%" x2="100%" y2="100%"><stop offset="20%" stop-color="#da0033" stop-opacity="1"></stop><stop offset="80%" stop-color="#da0033" stop-opacity="1"></stop></linearGradient></defs><defs><linearGradient id="grad1_1" x1="33.3%" y1="0%" x2="100%" y2="100%"><stop offset="20%" stop-color="#da0033" stop-opacity="1"></stop><stop offset="80%" stop-color="#e6454d" stop-opacity="1"></stop></linearGradient></defs><defs><linearGradient id="grad1_2" x1="33.3%" y1="0%" x2="100%" y2="100%"><stop offset="20%" stop-color="#ef6968" stop-opacity="1"></stop><stop offset="80%" stop-color="#e6454d" stop-opacity="1"></stop></linearGradient></defs><defs><linearGradient id="grad1_3" x1="33.3%" y1="0%" x2="100%" y2="100%"><stop offset="20%" stop-color="#ef6968" stop-opacity="1"></stop><stop offset="80%" stop-color="#f78984" stop-opacity="1"></stop></linearGradient></defs><defs><linearGradient id="grad1_4" x1="33.3%" y1="0%" x2="100%" y2="100%"><stop offset="20%" stop-color="#fda7a1" stop-opacity="1"></stop><stop offset="80%" stop-color="#f78984" stop-opacity="1"></stop></linearGradient></defs><defs><linearGradient id="grad1_5" x1="33.3%" y1="0%" x2="100%" y2="100%"><stop offset="20%" stop-color="#fda7a1" stop-opacity="1"></stop><stop offset="80%" stop-color="#ffc5c0" stop-opacity="1"></stop></linearGradient></defs><defs><linearGradient id="grad1_6" x1="33.3%" y1="0%" x2="100%" y2="100%"><stop offset="20%" stop-color="#ffe2df" stop-opacity="1"></stop><stop offset="80%" stop-color="#ffc5c0" stop-opacity="1"></stop></linearGradient></defs><defs><linearGradient id="grad1_7" x1="33.3%" y1="0%" x2="100%" y2="100%"><stop offset="20%" stop-color="#ffe2df" stop-opacity="1"></stop><stop offset="80%" stop-color="#ffffff" stop-opacity="1"></stop></linearGradient></defs><defs><linearGradient id="grad2_0" x1="0%" y1="0%" x2="66.7%" y2="100%"><stop offset="20%" stop-color="#da0033" stop-opacity="1"></stop><stop offset="80%" stop-color="#da0033" stop-opacity="1"></stop></linearGradient></defs><defs><linearGradient id="grad2_1" x1="0%" y1="0%" x2="66.7%" y2="100%"><stop offset="20%" stop-color="#e6454d" stop-opacity="1"></stop><stop offset="80%" stop-color="#da0033" stop-opacity="1"></stop></linearGradient></defs><defs><linearGradient id="grad2_2" x1="0%" y1="0%" x2="66.7%" y2="100%"><stop offset="20%" stop-color="#e6454d" stop-opacity="1"></stop><stop offset="80%" stop-color="#ef6968" stop-opacity="1"></stop></linearGradient></defs><defs><linearGradient id="grad2_3" x1="0%" y1="0%" x2="66.7%" y2="100%"><stop offset="20%" stop-color="#f78984" stop-opacity="1"></stop><stop offset="80%" stop-color="#ef6968" stop-opacity="1"></stop></linearGradient></defs><defs><linearGradient id="grad2_4" x1="0%" y1="0%" x2="66.7%" y2="100%"><stop offset="20%" stop-color="#f78984" stop-opacity="1"></stop><stop offset="80%" stop-color="#fda7a1" stop-opacity="1"></stop></linearGradient></defs><defs><linearGradient id="grad2_5" x1="0%" y1="0%" x2="66.7%" y2="100%"><stop offset="20%" stop-color="#ffc5c0" stop-opacity="1"></stop><stop offset="80%" stop-color="#fda7a1" stop-opacity="1"></stop></linearGradient></defs><defs><linearGradient id="grad2_6" x1="0%" y1="0%" x2="66.7%" y2="100%"><stop offset="20%" stop-color="#ffc5c0" stop-opacity="1"></stop><stop offset="80%" stop-color="#ffe2df" stop-opacity="1"></stop></linearGradient></defs><defs><linearGradient id="grad2_7" x1="0%" y1="0%" x2="66.7%" y2="100%"><stop offset="20%" stop-color="#ffffff" stop-opacity="1"></stop><stop offset="80%" stop-color="#ffe2df" stop-opacity="1"></stop></linearGradient></defs><g transform="translate(900, 0)"><path d="M0 486.7C-68.4 485.4 -136.8 484 -186.3 449.7C-235.8 415.4 -266.4 348.3 -296.3 296.3C-326.2 244.2 -355.5 207.2 -387.1 160.3C-418.7 113.5 -452.7 56.7 -486.7 0L0 0Z" fill="#fff0ef"></path><path d="M0 425.9C-59.8 424.7 -119.7 423.5 -163 393.5C-206.3 363.5 -233.1 304.8 -259.2 259.2C-285.4 213.7 -311 181.3 -338.7 140.3C-366.4 99.3 -396.2 49.6 -425.9 0L0 0Z" fill="#ffd3cf"></path><path d="M0 365.1C-51.3 364 -102.6 363 -139.7 337.3C-176.8 311.6 -199.8 261.3 -222.2 222.2C-244.7 183.2 -266.6 155.4 -290.3 120.3C-314.1 85.1 -339.6 42.6 -365.1 0L0 0Z" fill="#ffb6b0"></path><path d="M0 304.2C-42.7 303.3 -85.5 302.5 -116.4 281.1C-147.4 259.7 -166.5 217.7 -185.2 185.2C-203.9 152.6 -222.2 129.5 -241.9 100.2C-261.7 70.9 -283 35.5 -304.2 0L0 0Z" fill="#fa9893"></path><path d="M0 243.4C-34.2 242.7 -68.4 242 -93.1 224.8C-117.9 207.7 -133.2 174.2 -148.1 148.1C-163.1 122.1 -177.7 103.6 -193.6 80.2C-209.4 56.7 -226.4 28.4 -243.4 0L0 0Z" fill="#f37a76"></path><path d="M0 182.5C-25.6 182 -51.3 181.5 -69.9 168.6C-88.4 155.8 -99.9 130.6 -111.1 111.1C-122.3 91.6 -133.3 77.7 -145.2 60.1C-157 42.6 -169.8 21.3 -182.5 0L0 0Z" fill="#eb585a"></path><path d="M0 121.7C-17.1 121.3 -34.2 121 -46.6 112.4C-58.9 103.9 -66.6 87.1 -74.1 74.1C-81.6 61.1 -88.9 51.8 -96.8 40.1C-104.7 28.4 -113.2 14.2 -121.7 0L0 0Z" fill="#e02e40"></path><path d="M0 60.8C-8.5 60.7 -17.1 60.5 -23.3 56.2C-29.5 51.9 -33.3 43.5 -37 37C-40.8 30.5 -44.4 25.9 -48.4 20C-52.3 14.2 -56.6 7.1 -60.8 0L0 0Z" fill="#da0033"></path></g><g transform="translate(0, 600)"><path d="M0 -486.7C72.6 -489.3 145.2 -491.9 186.3 -449.7C227.4 -407.5 236.9 -320.4 269.4 -269.4C301.9 -218.4 357.2 -203.4 397.3 -164.6C437.3 -125.7 462 -62.8 486.7 0L0 0Z" fill="#fff0ef"></path><path d="M0 -425.9C63.5 -428.2 127 -430.4 163 -393.5C198.9 -356.5 207.3 -280.4 235.7 -235.7C264.1 -191.1 312.6 -178 347.6 -144C382.6 -110 404.3 -55 425.9 0L0 0Z" fill="#ffd3cf"></path><path d="M0 -365.1C54.4 -367 108.9 -368.9 139.7 -337.3C170.5 -305.6 177.7 -240.3 202.1 -202.1C226.4 -163.8 267.9 -152.6 298 -123.4C328 -94.2 346.5 -47.1 365.1 0L0 0Z" fill="#ffb6b0"></path><path d="M0 -304.2C45.4 -305.8 90.7 -307.5 116.4 -281.1C142.1 -254.7 148.1 -200.3 168.4 -168.4C188.7 -136.5 223.3 -127.2 248.3 -102.8C273.3 -78.5 288.8 -39.3 304.2 0L0 0Z" fill="#fa9893"></path><path d="M0 -243.4C36.3 -244.7 72.6 -246 93.1 -224.8C113.7 -203.7 118.5 -160.2 134.7 -134.7C150.9 -109.2 178.6 -101.7 198.6 -82.3C218.7 -62.8 231 -31.4 243.4 0L0 0Z" fill="#f37a76"></path><path d="M0 -182.5C27.2 -183.5 54.4 -184.5 69.9 -168.6C85.3 -152.8 88.9 -120.2 101 -101C113.2 -81.9 134 -76.3 149 -61.7C164 -47.1 173.3 -23.6 182.5 0L0 0Z" fill="#eb585a"></path><path d="M0 -121.7C18.1 -122.3 36.3 -123 46.6 -112.4C56.8 -101.9 59.2 -80.1 67.4 -67.4C75.5 -54.6 89.3 -50.9 99.3 -41.1C109.3 -31.4 115.5 -15.7 121.7 0L0 0Z" fill="#e02e40"></path><path d="M0 -60.8C9.1 -61.2 18.1 -61.5 23.3 -56.2C28.4 -50.9 29.6 -40.1 33.7 -33.7C37.7 -27.3 44.7 -25.4 49.7 -20.6C54.7 -15.7 57.8 -7.9 60.8 0L0 0Z" fill="#da0033"></path></g></svg>