<svg id="visual" viewBox="0 0 900 600" width="900" height="600" xmlns="http://www.w3.org/2000/svg" xmlns:xlink="http://www.w3.org/1999/xlink" version="1.1"><path d="M0 25L75 65C150 105 300 185 450 226C600 267 750 269 825 270L900 271L900 0L825 0C750 0 600 0 450 0C300 0 150 0 75 0L0 0Z" fill="#ffffff"></path><path d="M0 211L75 223C150 235 300 259 450 322C600 385 750 487 825 538L900 589L900 269L825 268C750 267 600 265 450 224C300 183 150 103 75 63L0 23Z" fill="#ff0000"></path><path d="M0 601L75 601C150 601 300 601 450 601C600 601 750 601 825 601L900 601L900 587L825 536C750 485 600 383 450 320C300 257 150 233 75 221L0 209Z" fill="#ffffff"></path></svg>