<?xml version="1.0" standalone="no"?><svg xmlns="http://www.w3.org/2000/svg" viewBox="0 0 1440 320"><path fill="#ED2939" fill-opacity="0.9" d="M0,160L26.7,181.3C53.3,203,107,245,160,229.3C213.3,213,267,139,320,122.7C373.3,107,427,149,480,192C533.3,235,587,277,640,261.3C693.3,245,747,171,800,133.3C853.3,96,907,96,960,101.3C1013.3,107,1067,117,1120,154.7C1173.3,192,1227,256,1280,277.3C1333.3,299,1387,277,1413,266.7L1440,256L1440,320L1413.3,320C1386.7,320,1333,320,1280,320C1226.7,320,1173,320,1120,320C1066.7,320,1013,320,960,320C906.7,320,853,320,800,320C746.7,320,693,320,640,320C586.7,320,533,320,480,320C426.7,320,373,320,320,320C266.7,320,213,320,160,320C106.7,320,53,320,27,320L0,320Z"></path></svg>