<svg id="visual" viewBox="0 0 900 600" width="900" height="600" xmlns="http://www.w3.org/2000/svg" xmlns:xlink="http://www.w3.org/1999/xlink" version="1.1"><path d="M0 217L75 190C150 163 300 109 450 79C600 49 750 43 825 40L900 37L900 0L825 0C750 0 600 0 450 0C300 0 150 0 75 0L0 0Z" fill="#ffffff"></path><path d="M0 577L75 542C150 507 300 437 450 399C600 361 750 355 825 352L900 349L900 35L825 38C750 41 600 47 450 77C300 107 150 161 75 188L0 215Z" fill="#ff0000"></path><path d="M0 601L75 601C150 601 300 601 450 601C600 601 750 601 825 601L900 601L900 347L825 350C750 353 600 359 450 397C300 435 150 505 75 540L0 575Z" fill="#ffffff"></path></svg>